<svg width="120" height="100" viewBox="0 0 120 100" fill="none" xmlns="http://www.w3.org/2000/svg">
<g id="triangles" clip-path="url(#clip0)">
<g id="lightGroup">
<path id="light1" opacity="0.6" d="M45 48.268C46.3333 49.0378 46.3333 50.9623 45 51.7321L10.5 71.6506C9.16666 72.4204 7.5 71.4582 7.5 69.9186V30.0814C7.5 28.5418 9.16667 27.5796 10.5 28.3494L45 48.268Z" fill="#43C4ED"/>
</g>
<g id="darkGroup">
<path id="dark1" opacity="0.8" d="M65 48.268C66.3333 49.0378 66.3333 50.9623 65 51.7321L30.5 71.6506C29.1667 72.4204 27.5 71.4582 27.5 69.9186V30.0814C27.5 28.5418 29.1667 27.5796 30.5 28.3494L65 48.268Z" fill="#635BFF"/>
<path id="dark2" opacity="0.8" d="M45 48.268C46.3333 49.0378 46.3333 50.9623 45 51.7321L10.5 71.6506C9.16666 72.4204 7.5 71.4582 7.5 69.9186V30.0814C7.5 28.5418 9.16667 27.5796 10.5 28.3494L45 48.268Z" fill="#635BFF"/>
</g>
</g>
<defs>
<clipPath id="clip0">
<rect width="120" height="100" fill="white"/>
</clipPath>
</defs>
</svg>
